<svg width="2040" height="339" viewBox="0 0 2040 339" fill="none" xmlns="http://www.w3.org/2000/svg">
<path fill-rule="evenodd" clip-rule="evenodd" d="M176.526 84.0395C291.927 22.8794 447.867 12.2292 574.621 16.8037C700.519 21.3467 797.636 40.8933 797.636 40.8933C797.636 40.8933 634.842 -1.28912 445.374 0.0303203C445.316 0.0303203 445.256 0.0283439 445.195 0.0263677C445.135 0.0243914 445.075 0.022415 445.017 0.022415C199.238 0.022415 0 75.7832 0 169.25C0 169.531 0.0283259 170.152 0.0519035 170.669C0.0687116 171.037 0.0831061 171.352 0.0831061 171.454C1.53747 214.545 45.3012 253.741 116.348 283.322L99.7603 236.944C107.382 244.79 116.299 252.295 126.379 259.477C166.678 288.133 225.55 310.975 295.451 324.572C341.317 333.492 391.87 338.462 445.017 338.462C454.305 338.462 463.469 338.134 472.559 337.81C476.945 337.653 481.314 337.497 485.672 337.379C505.086 336.834 534.597 333.792 534.597 333.792C534.597 333.792 474.769 334.242 399.915 320.613C88.0758 259.303 140.134 119.696 228.6 69.1779C85.8899 130.638 104.149 192.068 129.679 224.619C82.9152 182.081 85.5913 132.227 176.526 84.0395ZM291.57 139.471H262.931V247.27H291.57V139.471ZM262.939 110.468H291.57V84.3557H262.939V110.468ZM326.017 145.01V147.412L326.067 149.846C326.225 154.68 328.709 157.075 333.571 157.027C338.666 157.075 341.309 154.301 341.517 148.802L341.549 144.71V141.02C341.549 139.385 341.491 137.852 341.283 136.414C341.051 134.581 340.419 133.08 339.43 131.903C337.868 130.196 334.635 129.343 329.799 129.343H324.089V118.179H329.3C334.852 118.298 338.533 117.223 340.294 114.924C341.101 113.826 341.525 112.522 341.558 110.95V107.26V102.243C341.558 97.2182 339.156 94.7531 334.303 94.8244C329.3 94.9112 326.815 97.2972 326.881 102.014V104.645H307.958V102.591C307.925 100.283 308.191 98.0555 308.814 95.8749C310.318 89.9255 314.515 86.2596 321.305 84.9007C325.303 84.0868 329.499 83.6604 333.879 83.6604C338.458 83.6604 342.455 83.9683 345.946 84.5611C353.11 85.7937 357.597 89.5146 359.359 95.6934C360.082 98.3243 360.464 100.765 360.498 103.057V106.225C360.456 115.026 357.722 120.407 352.287 122.382L348.597 123.623C355.852 125.092 359.775 129.224 360.34 135.995L360.498 141.075V144.702C360.456 149.134 360.248 152.271 359.933 154.096C359.293 157.596 357.755 160.393 355.287 162.51C350.891 166.287 343.827 168.175 334.028 168.175C330.106 168.199 326.399 167.899 322.892 167.235C319.028 166.619 315.861 165.457 313.435 163.798C310.958 162.115 309.346 159.974 308.531 157.367C307.792 155.384 307.327 153.164 307.244 150.715L307.102 147.546V145.002H326.017V145.01ZM317.44 199.439H324.305V246.836H317.44V199.439ZM342.613 199.439L355.561 240.279V199.439H361.993V246.828H351.231L338.308 206.431V246.828H331.876V199.439H342.613ZM397.322 204.788V199.439H367.404V204.788H378.93V246.828H385.795V204.788H397.322ZM403.048 199.439H425.503V204.788H409.912V219.807H424.556V225.157H409.912V241.487H425.952V246.828H403.048V199.439ZM440.778 219.965V204.787H446.097C449.147 204.795 451.225 205.198 452.355 205.957C453.876 206.976 454.648 208.825 454.648 211.471C454.648 213.913 454.374 215.651 453.859 216.71C453.07 218.297 451.599 219.293 449.48 219.656C448.391 219.87 447.144 219.965 445.698 219.965H440.778ZM449.454 199.438H445.349V199.43H433.922V246.828H440.778V225.314H445.523C446.853 225.314 448.058 225.44 449.122 225.709C451.591 226.396 452.978 228.427 453.302 231.84L453.535 236.28L453.784 240.546C453.851 241.866 453.984 242.956 454.166 243.801L454.848 246.828H461.995C461.463 245.168 461.139 243.896 460.998 243.035C460.757 241.834 460.549 240.167 460.441 238.018L460.159 232.448C460.084 230.749 459.934 229.311 459.693 228.047C459.344 226.167 458.422 224.8 456.943 223.955C455.928 223.362 454.241 222.951 451.923 222.706C455.663 222.098 458.198 220.936 459.502 219.19C460.823 217.366 461.497 214.703 461.497 211.234C461.439 204.59 458.854 200.813 453.793 199.881C452.479 199.604 451.025 199.454 449.454 199.438ZM480.536 199.439L493.476 240.279V199.439H499.908V246.828H489.154L476.223 206.431V246.828H469.774V199.439H480.536ZM526.743 230.663H515.856L521.474 205.42L526.743 230.663ZM526.112 199.439H517.095L505.601 246.836H512.249L514.676 236.02H528.015L530.383 246.836H537.597L526.112 199.439ZM571.33 199.439V204.788H559.803V246.828H552.946V204.788H541.42V199.439H571.33ZM578.419 199.439H585.267V246.836H578.419V199.439ZM599.836 230.568C599.86 234.55 600.117 237.141 600.574 238.326C601.054 239.528 601.956 240.476 603.244 241.163C604.538 241.842 605.868 242.198 607.232 242.159C608.479 242.198 609.686 241.914 610.827 241.321C613.006 240.286 614.189 238.484 614.405 235.885C614.511 234.416 614.587 232.63 614.61 230.576V214.703C614.634 211.274 614.306 208.864 613.621 207.474C612.526 205.206 610.406 204.1 607.214 204.108C605.991 204.108 604.837 204.353 603.748 204.819C601.505 205.736 600.269 207.584 599.994 210.326C599.854 211.582 599.783 213.036 599.819 214.695V230.568H599.836ZM592.985 214.727C593.003 210.847 593.319 208.011 593.898 206.186C594.818 203.35 596.844 201.319 599.971 200.102C602.219 199.194 604.65 198.759 607.25 198.759C609.814 198.759 612.25 199.194 614.528 200.102C617.585 201.319 619.605 203.35 620.536 206.186C621.128 207.98 621.444 210.832 621.491 214.727V230.607C621.491 233.483 621.362 235.964 621.104 238.018C620.331 244.292 615.775 247.468 607.449 247.515C601.388 247.515 597.342 246.045 595.292 243.107C593.735 240.894 592.962 236.73 592.997 230.615V214.727H592.985ZM652.631 240.279L639.702 199.439H628.945V246.828H635.386V206.431L648.327 246.828H659.084V199.439H652.631V240.279ZM675.029 230.663H685.927L680.663 205.42L675.029 230.663ZM676.253 199.439H685.277L696.778 246.836H689.557L687.186 236.02H673.858L671.422 246.836H664.764L676.253 199.439ZM709.719 199.439H702.862V246.828H724.247V241.487H709.719V199.439Z" fill="#00588F"/>
<path d="M776.124 23.8475V0H779.781L788.14 21.0471H788.197L796.384 0H800V23.8475H797.633V2.58921H797.543L789.208 23.8475H786.948L778.581 2.58921H778.515V23.8475H776.124Z" fill="#00588F"/>
<path d="M754.286 0.0108071H772.795V1.93329H764.748V23.8471H762.373V1.93329H754.286V0.0108071Z" fill="#00588F"/>
<path d="M2018.86 245.587C2015.54 245.587 2012.66 245.057 2010.2 243.995C2007.73 242.934 2005.82 241.449 2004.47 239.539C2003.15 237.629 2002.49 235.379 2002.49 232.79V231.198C2002.49 230.986 2002.56 230.816 2002.68 230.689C2002.85 230.519 2003.04 230.434 2003.26 230.434H2008.92C2009.14 230.434 2009.31 230.519 2009.43 230.689C2009.6 230.816 2009.69 230.986 2009.69 231.198V232.408C2009.69 234.36 2010.56 235.994 2012.3 237.31C2014.04 238.584 2016.42 239.22 2019.43 239.22C2022.02 239.22 2023.97 238.669 2025.29 237.565C2026.6 236.461 2027.26 235.039 2027.26 233.299C2027.26 232.111 2026.9 231.113 2026.18 230.307C2025.46 229.458 2024.42 228.694 2023.06 228.015C2021.74 227.335 2019.75 226.487 2017.07 225.468C2014.06 224.364 2011.62 223.324 2009.75 222.348C2007.88 221.372 2006.31 220.056 2005.04 218.401C2003.81 216.703 2003.19 214.602 2003.19 212.097C2003.19 208.362 2004.55 205.412 2007.27 203.247C2009.98 201.083 2013.61 200 2018.16 200C2021.34 200 2024.14 200.552 2026.56 201.656C2029.02 202.759 2030.93 204.309 2032.29 206.303C2033.65 208.256 2034.33 210.527 2034.33 213.116V214.198C2034.33 214.411 2034.24 214.602 2034.07 214.771C2033.95 214.899 2033.78 214.962 2033.56 214.962H2027.83C2027.62 214.962 2027.43 214.899 2027.26 214.771C2027.13 214.602 2027.07 214.411 2027.07 214.198V213.498C2027.07 211.503 2026.24 209.826 2024.59 208.468C2022.97 207.067 2020.72 206.367 2017.84 206.367C2015.5 206.367 2013.68 206.855 2012.36 207.832C2011.09 208.808 2010.45 210.187 2010.45 211.97C2010.45 213.243 2010.79 214.283 2011.47 215.09C2012.15 215.896 2013.17 216.639 2014.53 217.318C2015.88 217.955 2017.99 218.783 2020.83 219.801C2023.84 220.947 2026.24 221.987 2028.02 222.921C2029.85 223.855 2031.4 225.171 2032.67 226.869C2033.99 228.524 2034.65 230.604 2034.65 233.108C2034.65 236.928 2033.22 239.963 2030.38 242.213C2027.58 244.462 2023.74 245.587 2018.86 245.587Z" fill="#00588F"/>
<path d="M1987.79 201.273C1987.79 201.061 1987.85 200.891 1987.98 200.764C1988.15 200.594 1988.34 200.509 1988.55 200.509H1994.41C1994.62 200.509 1994.79 200.594 1994.92 200.764C1995.09 200.891 1995.17 201.061 1995.17 201.273V244.313C1995.17 244.526 1995.09 244.717 1994.92 244.886C1994.79 245.014 1994.62 245.077 1994.41 245.077H1988.74C1988.32 245.077 1988.02 244.908 1987.85 244.568L1969.51 214.516C1969.43 214.389 1969.35 214.347 1969.26 214.389C1969.18 214.389 1969.13 214.474 1969.13 214.644L1969.26 244.313C1969.26 244.526 1969.18 244.717 1969.01 244.886C1968.88 245.014 1968.71 245.077 1968.5 245.077H1962.64C1962.43 245.077 1962.24 245.014 1962.07 244.886C1961.94 244.717 1961.87 244.526 1961.87 244.313V201.273C1961.87 201.061 1961.94 200.891 1962.07 200.764C1962.24 200.594 1962.43 200.509 1962.64 200.509H1968.31C1968.73 200.509 1969.03 200.679 1969.2 201.018L1987.47 231.07C1987.55 231.198 1987.64 231.261 1987.72 231.261C1987.81 231.219 1987.85 231.113 1987.85 230.943L1987.79 201.273Z" fill="#00588F"/>
<path d="M1937.42 245.715C1934.24 245.715 1931.41 245.078 1928.95 243.804C1926.49 242.489 1924.58 240.642 1923.22 238.265C1921.91 235.888 1921.25 233.151 1921.25 230.052V215.535C1921.25 212.479 1921.93 209.784 1923.28 207.45C1924.64 205.073 1926.53 203.247 1928.95 201.974C1931.41 200.658 1934.24 200 1937.42 200C1940.65 200 1943.47 200.658 1945.89 201.974C1948.35 203.247 1950.26 205.073 1951.62 207.45C1952.98 209.784 1953.66 212.479 1953.66 215.535V230.052C1953.66 233.151 1952.98 235.888 1951.62 238.265C1950.26 240.642 1948.35 242.489 1945.89 243.804C1943.47 245.078 1940.65 245.715 1937.42 245.715ZM1937.42 239.348C1940.09 239.348 1942.24 238.52 1943.85 236.865C1945.46 235.209 1946.27 233.023 1946.27 230.307V215.472C1946.27 212.713 1945.46 210.506 1943.85 208.85C1942.24 207.195 1940.09 206.367 1937.42 206.367C1934.79 206.367 1932.67 207.195 1931.05 208.85C1929.44 210.506 1928.63 212.713 1928.63 215.472V230.307C1928.63 233.023 1929.44 235.209 1931.05 236.865C1932.67 238.52 1934.79 239.348 1937.42 239.348Z" fill="#00588F"/>
<path d="M1906.43 245.077C1906.22 245.077 1906.03 245.014 1905.86 244.886C1905.73 244.717 1905.67 244.526 1905.67 244.313V201.273C1905.67 201.061 1905.73 200.891 1905.86 200.764C1906.03 200.594 1906.22 200.509 1906.43 200.509H1912.29C1912.5 200.509 1912.67 200.594 1912.8 200.764C1912.97 200.891 1913.05 201.061 1913.05 201.273V244.313C1913.05 244.526 1912.97 244.717 1912.8 244.886C1912.67 245.014 1912.5 245.077 1912.29 245.077H1906.43Z" fill="#00588F"/>
<path d="M1898.08 200.509C1898.3 200.509 1898.47 200.594 1898.59 200.764C1898.76 200.891 1898.85 201.061 1898.85 201.273V206.176C1898.85 206.388 1898.76 206.579 1898.59 206.749C1898.47 206.876 1898.3 206.94 1898.08 206.94H1886.37C1886.16 206.94 1886.05 207.046 1886.05 207.258V244.313C1886.05 244.526 1885.97 244.717 1885.8 244.886C1885.67 245.014 1885.5 245.077 1885.29 245.077H1879.43C1879.22 245.077 1879.03 245.014 1878.86 244.886C1878.73 244.717 1878.66 244.526 1878.66 244.313V207.258C1878.66 207.046 1878.56 206.94 1878.35 206.94H1867.08C1866.87 206.94 1866.67 206.876 1866.5 206.749C1866.38 206.579 1866.31 206.388 1866.31 206.176V201.273C1866.31 201.061 1866.38 200.891 1866.5 200.764C1866.67 200.594 1866.87 200.509 1867.08 200.509H1898.08Z" fill="#00588F"/>
<path d="M1843.92 245.587C1840.78 245.587 1838 244.971 1835.58 243.74C1833.16 242.509 1831.27 240.769 1829.91 238.519C1828.6 236.227 1827.94 233.596 1827.94 230.625V201.273C1827.94 201.061 1828 200.891 1828.13 200.764C1828.3 200.594 1828.49 200.509 1828.7 200.509H1834.56C1834.77 200.509 1834.94 200.594 1835.07 200.764C1835.24 200.891 1835.32 201.061 1835.32 201.273V230.752C1835.32 233.256 1836.11 235.294 1837.68 236.864C1839.25 238.435 1841.33 239.22 1843.92 239.22C1846.51 239.22 1848.59 238.435 1850.16 236.864C1851.73 235.294 1852.51 233.256 1852.51 230.752V201.273C1852.51 201.061 1852.58 200.891 1852.71 200.764C1852.88 200.594 1853.07 200.509 1853.28 200.509H1859.14C1859.35 200.509 1859.52 200.594 1859.65 200.764C1859.82 200.891 1859.9 201.061 1859.9 201.273V230.625C1859.9 233.596 1859.24 236.227 1857.93 238.519C1856.61 240.769 1854.74 242.509 1852.32 243.74C1849.9 244.971 1847.1 245.587 1843.92 245.587Z" fill="#00588F"/>
<path d="M1792.71 245.077C1792.5 245.077 1792.31 245.014 1792.14 244.886C1792.01 244.717 1791.95 244.526 1791.95 244.313V201.273C1791.95 201.061 1792.01 200.891 1792.14 200.764C1792.31 200.594 1792.5 200.509 1792.71 200.509H1798.57C1798.78 200.509 1798.95 200.594 1799.08 200.764C1799.25 200.891 1799.33 201.061 1799.33 201.273V238.392C1799.33 238.604 1799.44 238.71 1799.65 238.71H1820.98C1821.19 238.71 1821.36 238.795 1821.49 238.965C1821.66 239.092 1821.74 239.262 1821.74 239.475V244.313C1821.74 244.526 1821.66 244.717 1821.49 244.886C1821.36 245.014 1821.19 245.077 1820.98 245.077H1792.71Z" fill="#00588F"/>
<path d="M1767.49 245.715C1764.31 245.715 1761.49 245.078 1759.02 243.804C1756.56 242.489 1754.65 240.642 1753.29 238.265C1751.98 235.888 1751.32 233.151 1751.32 230.052V215.535C1751.32 212.479 1752 209.784 1753.36 207.45C1754.72 205.073 1756.6 203.247 1759.02 201.974C1761.49 200.658 1764.31 200 1767.49 200C1770.72 200 1773.54 200.658 1775.96 201.974C1778.42 203.247 1780.33 205.073 1781.69 207.45C1783.05 209.784 1783.73 212.479 1783.73 215.535V230.052C1783.73 233.151 1783.05 235.888 1781.69 238.265C1780.33 240.642 1778.42 242.489 1775.96 243.804C1773.54 245.078 1770.72 245.715 1767.49 245.715ZM1767.49 239.348C1770.17 239.348 1772.31 238.52 1773.92 236.865C1775.54 235.209 1776.34 233.023 1776.34 230.307V215.472C1776.34 212.713 1775.54 210.506 1773.92 208.85C1772.31 207.195 1770.17 206.367 1767.49 206.367C1764.86 206.367 1762.74 207.195 1761.13 208.85C1759.51 210.506 1758.71 212.713 1758.71 215.472V230.307C1758.71 233.023 1759.51 235.209 1761.13 236.865C1762.74 238.52 1764.86 239.348 1767.49 239.348Z" fill="#00588F"/>
<path d="M1729.17 245.587C1725.86 245.587 1722.98 245.057 1720.52 243.995C1718.05 242.934 1716.14 241.449 1714.79 239.539C1713.47 237.629 1712.81 235.379 1712.81 232.79V231.198C1712.81 230.986 1712.87 230.816 1713 230.689C1713.17 230.519 1713.36 230.434 1713.58 230.434H1719.24C1719.45 230.434 1719.62 230.519 1719.75 230.689C1719.92 230.816 1720.01 230.986 1720.01 231.198V232.408C1720.01 234.36 1720.88 235.994 1722.62 237.31C1724.36 238.584 1726.73 239.22 1729.75 239.22C1732.34 239.22 1734.29 238.669 1735.6 237.565C1736.92 236.461 1737.58 235.039 1737.58 233.299C1737.58 232.111 1737.22 231.113 1736.5 230.307C1735.77 229.458 1734.73 228.694 1733.38 228.015C1732.06 227.335 1730.07 226.487 1727.39 225.468C1724.38 224.364 1721.94 223.324 1720.07 222.348C1718.2 221.372 1716.63 220.056 1715.36 218.401C1714.13 216.703 1713.51 214.602 1713.51 212.097C1713.51 208.362 1714.87 205.412 1717.59 203.247C1720.3 201.083 1723.93 200 1728.47 200C1731.66 200 1734.46 200.552 1736.88 201.656C1739.34 202.759 1741.25 204.309 1742.61 206.303C1743.97 208.256 1744.65 210.527 1744.65 213.116V214.198C1744.65 214.411 1744.56 214.602 1744.39 214.771C1744.26 214.899 1744.09 214.962 1743.88 214.962H1738.15C1737.94 214.962 1737.75 214.899 1737.58 214.771C1737.45 214.602 1737.39 214.411 1737.39 214.198V213.498C1737.39 211.503 1736.56 209.826 1734.9 208.468C1733.29 207.067 1731.04 206.367 1728.16 206.367C1725.82 206.367 1724 206.855 1722.68 207.832C1721.41 208.808 1720.77 210.187 1720.77 211.97C1720.77 213.243 1721.11 214.283 1721.79 215.09C1722.47 215.896 1723.49 216.639 1724.84 217.318C1726.2 217.955 1728.3 218.783 1731.15 219.801C1734.16 220.947 1736.56 221.987 1738.34 222.921C1740.17 223.855 1741.72 225.171 1742.99 226.869C1744.31 228.524 1744.96 230.604 1744.96 233.108C1744.96 236.928 1743.54 239.963 1740.7 242.213C1737.9 244.462 1734.06 245.587 1729.17 245.587Z" fill="#00588F"/>
<path d="M1686.14 245.077C1685.93 245.077 1685.74 245.014 1685.57 244.886C1685.44 244.717 1685.38 244.526 1685.38 244.313V201.273C1685.38 201.061 1685.44 200.891 1685.57 200.764C1685.74 200.594 1685.93 200.509 1686.14 200.509H1692C1692.21 200.509 1692.38 200.594 1692.51 200.764C1692.68 200.891 1692.76 201.061 1692.76 201.273V244.313C1692.76 244.526 1692.68 244.717 1692.51 244.886C1692.38 245.014 1692.21 245.077 1692 245.077H1686.14Z" fill="#00588F"/>
<path d="M1671.72 245.077C1671.3 245.077 1671.02 244.865 1670.89 244.441L1668.79 237.628C1668.71 237.458 1668.6 237.373 1668.48 237.373H1651.67C1651.54 237.373 1651.43 237.458 1651.35 237.628L1649.25 244.441C1649.12 244.865 1648.84 245.077 1648.42 245.077H1642.05C1641.8 245.077 1641.61 245.014 1641.48 244.886C1641.35 244.717 1641.33 244.483 1641.42 244.186L1655.23 201.146C1655.36 200.721 1655.64 200.509 1656.06 200.509H1664.02C1664.44 200.509 1664.72 200.721 1664.85 201.146L1678.73 244.186C1678.77 244.271 1678.79 244.377 1678.79 244.504C1678.79 244.886 1678.56 245.077 1678.09 245.077H1671.72ZM1653.32 231.198C1653.28 231.452 1653.36 231.58 1653.58 231.58H1666.5C1666.76 231.58 1666.84 231.452 1666.76 231.198L1660.2 209.868C1660.16 209.699 1660.09 209.614 1660.01 209.614C1659.92 209.614 1659.86 209.699 1659.82 209.868L1653.32 231.198Z" fill="#00588F"/>
<path d="M1592.75 245.077C1592.54 245.077 1592.35 245.014 1592.18 244.886C1592.05 244.717 1591.99 244.526 1591.99 244.313V201.273C1591.99 201.061 1592.05 200.891 1592.18 200.764C1592.35 200.594 1592.54 200.509 1592.75 200.509H1608.29C1611.3 200.509 1613.95 201.04 1616.24 202.101C1618.54 203.162 1620.3 204.69 1621.53 206.685C1622.8 208.638 1623.44 210.93 1623.44 213.561V232.025C1623.44 234.657 1622.8 236.97 1621.53 238.965C1620.3 240.918 1618.54 242.424 1616.24 243.486C1613.95 244.547 1611.3 245.077 1608.29 245.077H1592.75ZM1599.37 238.392C1599.37 238.604 1599.48 238.71 1599.69 238.71H1608.6C1610.85 238.71 1612.64 238.01 1613.95 236.609C1615.31 235.166 1616.01 233.256 1616.05 230.879V214.771C1616.05 212.352 1615.37 210.441 1614.02 209.041C1612.66 207.598 1610.83 206.876 1608.54 206.876H1599.69C1599.48 206.876 1599.37 206.982 1599.37 207.194V238.392Z" fill="#00588F"/>
<path d="M1584.49 206.112C1584.49 206.324 1584.4 206.515 1584.23 206.685C1584.1 206.812 1583.93 206.876 1583.72 206.876H1562.01C1561.8 206.876 1561.69 206.982 1561.69 207.194V219.1C1561.69 219.313 1561.8 219.419 1562.01 219.419H1576.59C1576.8 219.419 1576.97 219.504 1577.1 219.673C1577.27 219.801 1577.35 219.971 1577.35 220.183V225.022C1577.35 225.234 1577.27 225.425 1577.1 225.595C1576.97 225.722 1576.8 225.786 1576.59 225.786H1562.01C1561.8 225.786 1561.69 225.892 1561.69 226.104V238.392C1561.69 238.604 1561.8 238.71 1562.01 238.71H1583.72C1583.93 238.71 1584.1 238.795 1584.23 238.965C1584.4 239.092 1584.49 239.262 1584.49 239.475V244.313C1584.49 244.526 1584.4 244.717 1584.23 244.886C1584.1 245.014 1583.93 245.077 1583.72 245.077H1555.07C1554.86 245.077 1554.67 245.014 1554.5 244.886C1554.37 244.717 1554.31 244.526 1554.31 244.313V201.273C1554.31 201.061 1554.37 200.891 1554.5 200.764C1554.67 200.594 1554.86 200.509 1555.07 200.509H1583.72C1583.93 200.509 1584.1 200.594 1584.23 200.764C1584.4 200.891 1584.49 201.061 1584.49 201.273V206.112Z" fill="#00588F"/>
<path d="M1546.73 200.509C1546.94 200.509 1547.11 200.594 1547.23 200.764C1547.4 200.891 1547.49 201.061 1547.49 201.273V206.176C1547.49 206.388 1547.4 206.579 1547.23 206.749C1547.11 206.876 1546.94 206.94 1546.73 206.94H1535.01C1534.8 206.94 1534.69 207.046 1534.69 207.258V244.313C1534.69 244.526 1534.61 244.717 1534.44 244.886C1534.31 245.014 1534.14 245.077 1533.93 245.077H1528.07C1527.86 245.077 1527.67 245.014 1527.5 244.886C1527.37 244.717 1527.31 244.526 1527.31 244.313V207.258C1527.31 207.046 1527.2 206.94 1526.99 206.94H1515.72C1515.51 206.94 1515.32 206.876 1515.15 206.749C1515.02 206.579 1514.95 206.388 1514.95 206.176V201.273C1514.95 201.061 1515.02 200.891 1515.15 200.764C1515.32 200.594 1515.51 200.509 1515.72 200.509H1546.73Z" fill="#00588F"/>
<path d="M1508.76 245.077C1508.33 245.077 1508.06 244.865 1507.93 244.441L1505.83 237.628C1505.74 237.458 1505.64 237.373 1505.51 237.373H1488.7C1488.57 237.373 1488.47 237.458 1488.38 237.628L1486.28 244.441C1486.16 244.865 1485.88 245.077 1485.46 245.077H1479.09C1478.83 245.077 1478.64 245.014 1478.52 244.886C1478.39 244.717 1478.37 244.483 1478.45 244.186L1492.27 201.146C1492.4 200.721 1492.67 200.509 1493.1 200.509H1501.05C1501.48 200.509 1501.75 200.721 1501.88 201.146L1515.76 244.186C1515.8 244.271 1515.83 244.377 1515.83 244.504C1515.83 244.886 1515.59 245.077 1515.12 245.077H1508.76ZM1490.36 231.198C1490.32 231.452 1490.4 231.58 1490.61 231.58H1503.54C1503.79 231.58 1503.88 231.452 1503.79 231.198L1497.23 209.868C1497.19 209.699 1497.13 209.614 1497.04 209.614C1496.96 209.614 1496.89 209.699 1496.85 209.868L1490.36 231.198Z" fill="#00588F"/>
<path d="M1465.61 245.077C1465.18 245.077 1464.89 244.886 1464.72 244.504L1456.31 226.168C1456.23 225.998 1456.1 225.913 1455.93 225.913H1448.29C1448.08 225.913 1447.97 226.019 1447.97 226.231V244.313C1447.97 244.526 1447.89 244.717 1447.72 244.886C1447.59 245.014 1447.42 245.077 1447.21 245.077H1441.35C1441.14 245.077 1440.95 245.014 1440.78 244.886C1440.65 244.717 1440.59 244.526 1440.59 244.313V201.273C1440.59 201.061 1440.65 200.891 1440.78 200.764C1440.95 200.594 1441.14 200.509 1441.35 200.509H1458.86C1461.45 200.509 1463.74 201.061 1465.74 202.165C1467.73 203.226 1469.28 204.754 1470.38 206.749C1471.49 208.701 1472.04 210.951 1472.04 213.498C1472.04 216.426 1471.27 218.931 1469.75 221.011C1468.26 223.048 1466.18 224.47 1463.51 225.276C1463.42 225.276 1463.36 225.319 1463.32 225.404C1463.27 225.489 1463.27 225.573 1463.32 225.658L1472.29 244.186C1472.38 244.356 1472.42 244.483 1472.42 244.568C1472.42 244.908 1472.19 245.077 1471.72 245.077H1465.61ZM1448.29 206.876C1448.08 206.876 1447.97 206.982 1447.97 207.194V219.864C1447.97 220.077 1448.08 220.183 1448.29 220.183H1457.84C1459.88 220.183 1461.51 219.589 1462.74 218.4C1464.02 217.169 1464.65 215.556 1464.65 213.561C1464.65 211.566 1464.02 209.953 1462.74 208.722C1461.51 207.491 1459.88 206.876 1457.84 206.876H1448.29Z" fill="#00588F"/>
<path d="M1416.44 245.587C1413.25 245.587 1410.45 244.972 1408.03 243.741C1405.61 242.467 1403.74 240.685 1402.43 238.393C1401.11 236.101 1400.46 233.469 1400.46 230.498V215.09C1400.46 212.076 1401.11 209.444 1402.43 207.195C1403.74 204.903 1405.61 203.141 1408.03 201.91C1410.45 200.637 1413.25 200 1416.44 200C1419.58 200 1422.34 200.616 1424.71 201.847C1427.13 203.078 1429 204.754 1430.32 206.876C1431.63 208.999 1432.29 211.397 1432.29 214.071V214.58C1432.29 214.793 1432.2 214.984 1432.04 215.153C1431.91 215.281 1431.74 215.344 1431.53 215.344H1425.73C1425.52 215.344 1425.33 215.281 1425.16 215.153C1425.03 214.984 1424.97 214.793 1424.97 214.58V214.262C1424.97 211.97 1424.18 210.081 1422.61 208.596C1421.08 207.11 1419.03 206.367 1416.44 206.367C1413.85 206.367 1411.77 207.152 1410.2 208.723C1408.63 210.251 1407.84 212.288 1407.84 214.835V230.752C1407.84 233.299 1408.67 235.358 1410.32 236.928C1411.98 238.456 1414.12 239.22 1416.75 239.22C1419.3 239.22 1421.3 238.562 1422.74 237.247C1424.23 235.888 1424.97 234.042 1424.97 231.707V227.76C1424.97 227.548 1424.86 227.442 1424.65 227.442H1416.82C1416.61 227.442 1416.42 227.378 1416.25 227.251C1416.12 227.081 1416.05 226.89 1416.05 226.678V221.966C1416.05 221.754 1416.12 221.584 1416.25 221.457C1416.42 221.287 1416.61 221.202 1416.82 221.202H1431.53C1431.74 221.202 1431.91 221.287 1432.04 221.457C1432.2 221.584 1432.29 221.754 1432.29 221.966V230.116C1432.29 234.997 1430.85 238.796 1427.96 241.512C1425.12 244.229 1421.28 245.587 1416.44 245.587Z" fill="#00588F"/>
<path d="M1394.04 206.112C1394.04 206.324 1393.95 206.515 1393.78 206.685C1393.66 206.812 1393.49 206.876 1393.27 206.876H1371.56C1371.35 206.876 1371.25 206.982 1371.25 207.194V219.1C1371.25 219.313 1371.35 219.419 1371.56 219.419H1386.14C1386.36 219.419 1386.53 219.504 1386.65 219.673C1386.82 219.801 1386.91 219.971 1386.91 220.183V225.022C1386.91 225.234 1386.82 225.425 1386.65 225.595C1386.53 225.722 1386.36 225.786 1386.14 225.786H1371.56C1371.35 225.786 1371.25 225.892 1371.25 226.104V238.392C1371.25 238.604 1371.35 238.71 1371.56 238.71H1393.27C1393.49 238.71 1393.66 238.795 1393.78 238.965C1393.95 239.092 1394.04 239.262 1394.04 239.475V244.313C1394.04 244.526 1393.95 244.717 1393.78 244.886C1393.66 245.014 1393.49 245.077 1393.27 245.077H1364.62C1364.41 245.077 1364.22 245.014 1364.05 244.886C1363.92 244.717 1363.86 244.526 1363.86 244.313V201.273C1363.86 201.061 1363.92 200.891 1364.05 200.764C1364.22 200.594 1364.41 200.509 1364.62 200.509H1393.27C1393.49 200.509 1393.66 200.594 1393.78 200.764C1393.95 200.891 1394.04 201.061 1394.04 201.273V206.112Z" fill="#00588F"/>
<path d="M1356.28 200.509C1356.49 200.509 1356.66 200.594 1356.79 200.764C1356.96 200.891 1357.04 201.061 1357.04 201.273V206.176C1357.04 206.388 1356.96 206.579 1356.79 206.749C1356.66 206.876 1356.49 206.94 1356.28 206.94H1344.56C1344.35 206.94 1344.24 207.046 1344.24 207.258V244.313C1344.24 244.526 1344.16 244.717 1343.99 244.886C1343.86 245.014 1343.69 245.077 1343.48 245.077H1337.62C1337.41 245.077 1337.22 245.014 1337.05 244.886C1336.92 244.717 1336.86 244.526 1336.86 244.313V207.258C1336.86 207.046 1336.75 206.94 1336.54 206.94H1325.27C1325.06 206.94 1324.87 206.876 1324.7 206.749C1324.57 206.579 1324.51 206.388 1324.51 206.176V201.273C1324.51 201.061 1324.57 200.891 1324.7 200.764C1324.87 200.594 1325.06 200.509 1325.27 200.509H1356.28Z" fill="#00588F"/>
<path d="M1310.31 201.273C1310.31 201.061 1310.38 200.891 1310.5 200.764C1310.67 200.594 1310.86 200.509 1311.08 200.509H1316.93C1317.15 200.509 1317.32 200.594 1317.44 200.764C1317.61 200.891 1317.7 201.061 1317.7 201.273V244.313C1317.7 244.526 1317.61 244.717 1317.44 244.886C1317.32 245.014 1317.15 245.077 1316.93 245.077H1311.27C1310.84 245.077 1310.55 244.908 1310.38 244.568L1292.04 214.516C1291.95 214.389 1291.87 214.347 1291.78 214.389C1291.7 214.389 1291.66 214.474 1291.66 214.644L1291.78 244.313C1291.78 244.526 1291.7 244.717 1291.53 244.886C1291.4 245.014 1291.23 245.077 1291.02 245.077H1285.16C1284.95 245.077 1284.76 245.014 1284.59 244.886C1284.46 244.717 1284.4 244.526 1284.4 244.313V201.273C1284.4 201.061 1284.46 200.891 1284.59 200.764C1284.76 200.594 1284.95 200.509 1285.16 200.509H1290.83C1291.25 200.509 1291.55 200.679 1291.72 201.018L1309.99 231.07C1310.08 231.198 1310.16 231.261 1310.25 231.261C1310.33 231.219 1310.38 231.113 1310.38 230.943L1310.31 201.273Z" fill="#00588F"/>
<path d="M1268.5 245.077C1268.29 245.077 1268.1 245.014 1267.93 244.886C1267.8 244.717 1267.74 244.526 1267.74 244.313V201.273C1267.74 201.061 1267.8 200.891 1267.93 200.764C1268.1 200.594 1268.29 200.509 1268.5 200.509H1274.36C1274.57 200.509 1274.74 200.594 1274.87 200.764C1275.04 200.891 1275.12 201.061 1275.12 201.273V244.313C1275.12 244.526 1275.04 244.717 1274.87 244.886C1274.74 245.014 1274.57 245.077 1274.36 245.077H1268.5Z" fill="#00588F"/>
<path d="M1247.49 206.112C1247.49 206.324 1247.4 206.515 1247.23 206.685C1247.11 206.812 1246.94 206.876 1246.73 206.876H1225.01C1224.8 206.876 1224.7 206.982 1224.7 207.194V219.1C1224.7 219.313 1224.8 219.419 1225.01 219.419H1239.59C1239.81 219.419 1239.98 219.504 1240.1 219.673C1240.27 219.801 1240.36 219.971 1240.36 220.183V225.022C1240.36 225.234 1240.27 225.425 1240.1 225.595C1239.98 225.722 1239.81 225.786 1239.59 225.786H1225.01C1224.8 225.786 1224.7 225.892 1224.7 226.104V238.392C1224.7 238.604 1224.8 238.71 1225.01 238.71H1246.73C1246.94 238.71 1247.11 238.795 1247.23 238.965C1247.4 239.092 1247.49 239.262 1247.49 239.475V244.313C1247.49 244.526 1247.4 244.717 1247.23 244.886C1247.11 245.014 1246.94 245.077 1246.73 245.077H1218.07C1217.86 245.077 1217.67 245.014 1217.5 244.886C1217.37 244.717 1217.31 244.526 1217.31 244.313V201.273C1217.31 201.061 1217.37 200.891 1217.5 200.764C1217.67 200.594 1217.86 200.509 1218.07 200.509H1246.73C1246.94 200.509 1247.11 200.594 1247.23 200.764C1247.4 200.891 1247.49 201.061 1247.49 201.273V206.112Z" fill="#00588F"/>
<path d="M1181.7 245.077C1181.49 245.077 1181.3 245.014 1181.13 244.886C1181 244.717 1180.94 244.526 1180.94 244.313V201.273C1180.94 201.061 1181 200.891 1181.13 200.764C1181.3 200.594 1181.49 200.509 1181.7 200.509H1187.56C1187.77 200.509 1187.94 200.594 1188.07 200.764C1188.24 200.891 1188.32 201.061 1188.32 201.273V238.392C1188.32 238.604 1188.43 238.71 1188.64 238.71H1209.97C1210.18 238.71 1210.35 238.795 1210.48 238.965C1210.65 239.092 1210.73 239.262 1210.73 239.475V244.313C1210.73 244.526 1210.65 244.717 1210.48 244.886C1210.35 245.014 1210.18 245.077 1209.97 245.077H1181.7Z" fill="#00588F"/>
<path d="M1166.23 221.838C1165.97 221.966 1165.97 222.093 1166.23 222.22C1170.55 224.258 1172.72 227.759 1172.72 232.726C1172.72 236.758 1171.36 239.835 1168.64 241.958C1165.97 244.037 1162.47 245.077 1158.14 245.077H1142.09C1141.88 245.077 1141.69 245.014 1141.52 244.886C1141.39 244.717 1141.33 244.526 1141.33 244.313V201.273C1141.33 201.061 1141.39 200.891 1141.52 200.764C1141.69 200.594 1141.88 200.509 1142.09 200.509H1157.63C1162.26 200.509 1165.82 201.507 1168.33 203.502C1170.83 205.497 1172.08 208.51 1172.08 212.543C1172.08 216.999 1170.13 220.098 1166.23 221.838ZM1149.03 206.876C1148.82 206.876 1148.72 206.982 1148.72 207.194V218.973C1148.72 219.185 1148.82 219.291 1149.03 219.291H1157.63C1159.88 219.291 1161.64 218.761 1162.91 217.7C1164.23 216.596 1164.89 215.089 1164.89 213.179C1164.89 211.227 1164.23 209.699 1162.91 208.595C1161.64 207.449 1159.88 206.876 1157.63 206.876H1149.03ZM1158.14 238.647C1160.35 238.647 1162.09 238.053 1163.36 236.864C1164.68 235.676 1165.33 234.063 1165.33 232.025C1165.33 229.945 1164.68 228.332 1163.36 227.186C1162.04 225.998 1160.26 225.404 1158.01 225.404H1149.03C1148.82 225.404 1148.72 225.51 1148.72 225.722V238.328C1148.72 238.541 1148.82 238.647 1149.03 238.647H1158.14Z" fill="#00588F"/>
<path d="M1127.68 245.077C1127.25 245.077 1126.98 244.865 1126.85 244.441L1124.75 237.628C1124.66 237.458 1124.56 237.373 1124.43 237.373H1107.62C1107.49 237.373 1107.39 237.458 1107.3 237.628L1105.2 244.441C1105.07 244.865 1104.8 245.077 1104.37 245.077H1098.01C1097.75 245.077 1097.56 245.014 1097.43 244.886C1097.31 244.717 1097.29 244.483 1097.37 244.186L1111.19 201.146C1111.31 200.721 1111.59 200.509 1112.01 200.509H1119.97C1120.4 200.509 1120.67 200.721 1120.8 201.146L1134.68 244.186C1134.72 244.271 1134.74 244.377 1134.74 244.504C1134.74 244.886 1134.51 245.077 1134.04 245.077H1127.68ZM1109.28 231.198C1109.23 231.452 1109.32 231.58 1109.53 231.58H1122.46C1122.71 231.58 1122.8 231.452 1122.71 231.198L1116.15 209.868C1116.11 209.699 1116.05 209.614 1115.96 209.614C1115.88 209.614 1115.81 209.699 1115.77 209.868L1109.28 231.198Z" fill="#00588F"/>
<path d="M1063.56 245.077C1063.35 245.077 1063.16 245.014 1062.99 244.886C1062.86 244.717 1062.8 244.526 1062.8 244.313V201.273C1062.8 201.061 1062.86 200.891 1062.99 200.764C1063.16 200.594 1063.35 200.509 1063.56 200.509H1079.1C1082.11 200.509 1084.77 201.04 1087.06 202.101C1089.35 203.162 1091.11 204.69 1092.34 206.685C1093.62 208.638 1094.25 210.93 1094.25 213.561V232.025C1094.25 234.657 1093.62 236.97 1092.34 238.965C1091.11 240.918 1089.35 242.424 1087.06 243.486C1084.77 244.547 1082.11 245.077 1079.1 245.077H1063.56ZM1070.19 238.392C1070.19 238.604 1070.29 238.71 1070.5 238.71H1079.42C1081.67 238.71 1083.45 238.01 1084.77 236.609C1086.12 235.166 1086.83 233.256 1086.87 230.879V214.771C1086.87 212.352 1086.19 210.441 1084.83 209.041C1083.47 207.598 1081.65 206.876 1079.35 206.876H1070.5C1070.29 206.876 1070.19 206.982 1070.19 207.194V238.392Z" fill="#00588F"/>
<path d="M1048.78 245.077C1048.35 245.077 1048.05 244.886 1047.88 244.504L1039.48 226.168C1039.4 225.998 1039.27 225.913 1039.1 225.913H1031.46C1031.25 225.913 1031.14 226.019 1031.14 226.231V244.313C1031.14 244.526 1031.05 244.717 1030.88 244.886C1030.76 245.014 1030.59 245.077 1030.38 245.077H1024.52C1024.31 245.077 1024.11 245.014 1023.94 244.886C1023.82 244.717 1023.75 244.526 1023.75 244.313V201.273C1023.75 201.061 1023.82 200.891 1023.94 200.764C1024.11 200.594 1024.31 200.509 1024.52 200.509H1042.03C1044.62 200.509 1046.91 201.061 1048.9 202.165C1050.9 203.226 1052.45 204.754 1053.55 206.749C1054.65 208.701 1055.21 210.951 1055.21 213.498C1055.21 216.426 1054.44 218.931 1052.91 221.011C1051.43 223.048 1049.35 224.47 1046.67 225.276C1046.59 225.276 1046.53 225.319 1046.48 225.404C1046.44 225.489 1046.44 225.573 1046.48 225.658L1055.46 244.186C1055.55 244.356 1055.59 244.483 1055.59 244.568C1055.59 244.908 1055.35 245.077 1054.89 245.077H1048.78ZM1031.46 206.876C1031.25 206.876 1031.14 206.982 1031.14 207.194V219.864C1031.14 220.077 1031.25 220.183 1031.46 220.183H1041.01C1043.05 220.183 1044.68 219.589 1045.91 218.4C1047.18 217.169 1047.82 215.556 1047.82 213.561C1047.82 211.566 1047.18 209.953 1045.91 208.722C1044.68 207.491 1043.05 206.876 1041.01 206.876H1031.46Z" fill="#00588F"/>
<path d="M999.299 245.715C996.116 245.715 993.293 245.078 990.831 243.804C988.369 242.489 986.459 240.642 985.101 238.265C983.785 235.888 983.127 233.151 983.127 230.052V215.535C983.127 212.479 983.806 209.784 985.165 207.45C986.523 205.073 988.412 203.247 990.831 201.974C993.293 200.658 996.116 200 999.299 200C1002.53 200 1005.35 200.658 1007.77 201.974C1010.23 203.247 1012.14 205.073 1013.5 207.45C1014.86 209.784 1015.53 212.479 1015.53 215.535V230.052C1015.53 233.151 1014.86 235.888 1013.5 238.265C1012.14 240.642 1010.23 242.489 1007.77 243.804C1005.35 245.078 1002.53 245.715 999.299 245.715ZM999.299 239.348C1001.97 239.348 1004.12 238.52 1005.73 236.865C1007.34 235.209 1008.15 233.023 1008.15 230.307V215.472C1008.15 212.713 1007.34 210.506 1005.73 208.85C1004.12 207.195 1001.97 206.367 999.299 206.367C996.668 206.367 994.545 207.195 992.932 208.85C991.319 210.506 990.513 212.713 990.513 215.472V230.307C990.513 233.023 991.319 235.209 992.932 236.865C994.545 238.52 996.668 239.348 999.299 239.348Z" fill="#00588F"/>
<path d="M978.573 206.112C978.573 206.324 978.488 206.515 978.318 206.685C978.191 206.812 978.021 206.876 977.809 206.876H956.161C955.949 206.876 955.843 206.982 955.843 207.194V219.1C955.843 219.313 955.949 219.419 956.161 219.419H970.742C970.954 219.419 971.124 219.504 971.251 219.673C971.421 219.801 971.506 219.971 971.506 220.183V225.022C971.506 225.234 971.421 225.425 971.251 225.595C971.124 225.722 970.954 225.786 970.742 225.786H956.161C955.949 225.786 955.843 225.892 955.843 226.104V244.313C955.843 244.526 955.758 244.717 955.588 244.886C955.461 245.014 955.291 245.077 955.079 245.077H949.222C949.009 245.077 948.818 245.014 948.649 244.886C948.521 244.717 948.458 244.526 948.458 244.313V201.273C948.458 201.061 948.521 200.891 948.649 200.764C948.818 200.594 949.009 200.509 949.222 200.509H977.809C978.021 200.509 978.191 200.594 978.318 200.764C978.488 200.891 978.573 201.061 978.573 201.273V206.112Z" fill="#00588F"/>
<path d="M942.697 206.112C942.697 206.324 942.613 206.515 942.443 206.685C942.315 206.812 942.146 206.876 941.933 206.876H920.286C920.074 206.876 919.968 206.982 919.968 207.194V219.1C919.968 219.313 920.074 219.419 920.286 219.419H934.866C935.078 219.419 935.248 219.504 935.376 219.673C935.545 219.801 935.63 219.971 935.63 220.183V225.022C935.63 225.234 935.545 225.425 935.376 225.595C935.248 225.722 935.078 225.786 934.866 225.786H920.286C920.074 225.786 919.968 225.892 919.968 226.104V244.313C919.968 244.526 919.883 244.717 919.713 244.886C919.586 245.014 919.416 245.077 919.204 245.077H913.346C913.134 245.077 912.943 245.014 912.773 244.886C912.646 244.717 912.582 244.526 912.582 244.313V201.273C912.582 201.061 912.646 200.891 912.773 200.764C912.943 200.594 913.134 200.509 913.346 200.509H941.933C942.146 200.509 942.315 200.594 942.443 200.764C942.613 200.891 942.697 201.061 942.697 201.273V206.112Z" fill="#00588F"/>
<path d="M898.929 245.077C898.504 245.077 898.228 244.865 898.101 244.441L896 237.628C895.915 237.458 895.809 237.373 895.682 237.373H878.873C878.746 237.373 878.639 237.458 878.555 237.628L876.454 244.441C876.326 244.865 876.05 245.077 875.626 245.077H869.259C869.004 245.077 868.813 245.014 868.686 244.886C868.559 244.717 868.537 244.483 868.622 244.186L882.438 201.146C882.566 200.721 882.842 200.509 883.266 200.509H891.225C891.649 200.509 891.925 200.721 892.052 201.146L905.932 244.186C905.975 244.271 905.996 244.377 905.996 244.504C905.996 244.886 905.762 245.077 905.296 245.077H898.929ZM880.528 231.198C880.486 231.452 880.571 231.58 880.783 231.58H893.708C893.962 231.58 894.047 231.452 893.962 231.198L887.405 209.868C887.362 209.699 887.298 209.614 887.214 209.614C887.129 209.614 887.065 209.699 887.023 209.868L880.528 231.198Z" fill="#00588F"/>
<path fill-rule="evenodd" clip-rule="evenodd" d="M800.001 264.615L800.001 172.308L803.693 172.308L803.693 264.615L800.001 264.615Z" fill="#00588F"/>
</svg>
