<svg width="985" height="460" viewBox="0 0 985 460" fill="none" xmlns="http://www.w3.org/2000/svg">
<path fill-rule="evenodd" clip-rule="evenodd" d="M267.955 84.0395C383.355 22.8794 539.296 12.2292 666.05 16.8037C791.948 21.3467 889.065 40.8933 889.065 40.8933C889.065 40.8933 726.27 -1.28912 536.803 0.0303203C536.745 0.0303203 536.684 0.0283439 536.624 0.0263677C536.564 0.0243914 536.504 0.022415 536.446 0.022415C290.667 0.022415 91.4287 75.7832 91.4287 169.25C91.4287 169.531 91.457 170.152 91.4806 170.669C91.4974 171.037 91.5118 171.352 91.5118 171.454C92.9662 214.545 136.73 253.741 207.777 283.322L191.189 236.944C198.81 244.79 207.727 252.295 217.808 259.477C258.106 288.133 316.979 310.975 386.879 324.572C432.746 333.492 483.299 338.462 536.446 338.462C545.734 338.462 554.898 338.134 563.987 337.81C568.374 337.653 572.743 337.497 577.101 337.379C596.515 336.834 626.026 333.792 626.026 333.792C626.026 333.792 566.197 334.242 491.344 320.613C179.505 259.303 231.562 119.696 320.029 69.1779C177.319 130.638 195.577 192.068 221.108 224.619C174.344 182.081 177.02 132.227 267.955 84.0395ZM382.998 139.471H354.36V247.27H382.998V139.471ZM354.368 110.468H382.998V84.3557H354.368V110.468ZM417.446 145.01V147.412L417.495 149.846C417.654 154.68 420.138 157.075 425 157.027C430.095 157.075 432.737 154.301 432.945 148.802L432.978 144.71V141.02C432.978 139.385 432.92 137.852 432.712 136.414C432.48 134.581 431.848 133.08 430.859 131.903C429.297 130.196 426.064 129.343 421.227 129.343H415.517V118.179H420.728C426.28 118.298 429.962 117.223 431.723 114.924C432.529 113.826 432.953 112.522 432.987 110.95V107.26V102.243C432.987 97.2182 430.585 94.7532 425.732 94.8244C420.728 94.9112 418.244 97.2972 418.31 102.014V104.645H399.387V102.591C399.353 100.283 399.62 98.0555 400.243 95.8749C401.747 89.9255 405.944 86.2596 412.734 84.9007C416.731 84.0868 420.928 83.6604 425.308 83.6604C429.887 83.6604 433.884 83.9683 437.374 84.5611C444.538 85.7937 449.026 89.5146 450.788 95.6934C451.511 98.3243 451.893 100.765 451.927 103.057V106.225C451.885 115.026 449.151 120.407 443.716 122.382L440.026 123.623C447.281 125.092 451.203 129.224 451.768 135.995L451.927 141.075V144.702C451.885 149.134 451.677 152.271 451.361 154.096C450.721 157.596 449.184 160.393 446.716 162.51C442.32 166.287 435.255 168.175 425.457 168.175C421.535 168.199 417.828 167.899 414.321 167.235C410.456 166.619 407.29 165.458 404.864 163.798C402.387 162.115 400.775 159.974 399.96 157.367C399.22 155.384 398.755 153.164 398.672 150.715L398.531 147.546V145.002H417.446V145.01ZM408.869 199.439H415.733V246.836H408.869V199.439ZM434.042 199.439L446.99 240.279V199.439H453.422V246.828H442.66L429.737 206.431V246.828H423.304V199.439H434.042ZM488.751 204.788V199.439H458.833V204.788H470.359V246.828H477.224V204.788H488.751ZM494.477 199.439H516.932V204.788H501.341V219.807H515.985V225.157H501.341V241.487H517.381V246.828H494.477V199.439ZM532.207 219.965V204.787H537.526C540.576 204.795 542.653 205.198 543.783 205.957C545.305 206.976 546.077 208.825 546.077 211.471C546.077 213.913 545.803 215.651 545.288 216.71C544.498 218.297 543.027 219.293 540.908 219.656C539.82 219.87 538.573 219.965 537.127 219.965H532.207ZM540.883 199.438H536.778V199.43H525.351V246.828H532.207V225.314H536.952C538.282 225.314 539.487 225.44 540.551 225.709C543.019 226.396 544.407 228.427 544.731 231.84L544.964 236.28L545.213 240.546C545.28 241.866 545.412 242.956 545.595 243.801L546.277 246.828H553.424C552.892 245.168 552.568 243.896 552.426 243.035C552.186 241.834 551.978 240.167 551.87 238.018L551.587 232.448C551.512 230.749 551.363 229.311 551.122 228.047C550.773 226.167 549.851 224.8 548.371 223.955C547.357 223.362 545.67 222.951 543.351 222.706C547.091 222.098 549.626 220.936 550.931 219.19C552.252 217.366 552.925 214.703 552.925 211.234C552.867 204.59 550.283 200.813 545.222 199.881C543.908 199.604 542.454 199.454 540.883 199.438ZM571.965 199.439L584.905 240.279V199.439H591.337V246.828H580.583L567.652 206.431V246.828H561.203V199.439H571.965ZM618.172 230.663H607.285L612.903 205.42L618.172 230.663ZM617.54 199.439H608.524L597.03 246.836H603.678L606.105 236.02H619.443L621.812 246.836H629.026L617.54 199.439ZM662.759 199.439V204.788H651.232V246.828H644.375V204.788H632.849V199.439H662.759ZM669.848 199.439H676.695V246.836H669.848V199.439ZM691.265 230.568C691.288 234.55 691.546 237.141 692.003 238.326C692.483 239.528 693.385 240.476 694.673 241.163C695.967 241.842 697.296 242.198 698.661 242.159C699.908 242.198 701.114 241.914 702.256 241.321C704.434 240.286 705.617 238.484 705.834 235.885C705.939 234.416 706.015 232.63 706.039 230.576V214.703C706.062 211.274 705.734 208.864 705.049 207.474C703.954 205.206 701.834 204.1 698.643 204.108C697.419 204.108 696.266 204.353 695.176 204.819C692.934 205.736 691.698 207.584 691.423 210.326C691.282 211.582 691.212 213.036 691.247 214.695V230.568H691.265ZM684.414 214.727C684.431 210.847 684.747 208.011 685.327 206.186C686.247 203.35 688.273 201.319 691.4 200.102C693.648 199.194 696.078 198.759 698.678 198.759C701.243 198.759 703.679 199.194 705.957 200.102C709.014 201.319 711.034 203.35 711.965 206.186C712.556 207.98 712.872 210.832 712.919 214.727V230.607C712.919 233.483 712.791 235.964 712.533 238.018C711.76 244.292 707.204 247.468 698.877 247.515C692.817 247.515 688.77 246.045 686.721 243.107C685.163 240.894 684.39 236.73 684.425 230.615V214.727H684.414ZM744.06 240.279L731.131 199.439H720.374V246.828H726.815V206.431L739.756 246.828H750.513V199.439H744.06V240.279ZM766.458 230.663H777.356L772.091 205.42L766.458 230.663ZM767.682 199.439H776.706L788.206 246.836H780.986L778.615 236.02H765.287L762.851 246.836H756.193L767.682 199.439ZM801.147 199.439H794.29V246.828H815.675V241.487H801.147V199.439Z" fill="#00588F"/>
<path d="M867.552 23.8475V0H871.21L879.569 21.0471H879.626L887.812 0H891.429V23.8475H889.062V2.58921H888.971L880.637 23.8475H878.377L870.01 2.58921H869.944V23.8475H867.552Z" fill="#00588F"/>
<path d="M845.714 0.0108071H864.224V1.93329H856.177V23.8471H853.802V1.93329H845.714V0.0108071Z" fill="#00588F"/>
<path d="M969.548 455.567C966.758 455.567 964.325 455.12 962.25 454.225C960.175 453.331 958.565 452.079 957.42 450.469C956.311 448.859 955.756 446.963 955.756 444.78V443.439C955.756 443.26 955.81 443.117 955.917 443.009C956.06 442.866 956.221 442.795 956.4 442.795H961.177C961.355 442.795 961.499 442.866 961.606 443.009C961.749 443.117 961.821 443.26 961.821 443.439V444.458C961.821 446.104 962.554 447.481 964.021 448.591C965.488 449.664 967.491 450.201 970.031 450.201C972.214 450.201 973.859 449.735 974.968 448.805C976.078 447.875 976.632 446.677 976.632 445.21C976.632 444.208 976.328 443.367 975.72 442.687C975.112 441.972 974.235 441.328 973.09 440.755C971.981 440.183 970.3 439.468 968.046 438.609C965.506 437.679 963.448 436.802 961.874 435.979C960.3 435.156 958.976 434.047 957.903 432.652C956.865 431.221 956.347 429.45 956.347 427.339C956.347 424.191 957.492 421.704 959.781 419.88C962.071 418.055 965.13 417.143 968.958 417.143C971.641 417.143 974.002 417.608 976.042 418.538C978.117 419.468 979.727 420.774 980.872 422.456C982.016 424.101 982.589 426.015 982.589 428.198V429.11C982.589 429.289 982.517 429.45 982.374 429.593C982.267 429.7 982.124 429.754 981.945 429.754H977.115C976.936 429.754 976.775 429.7 976.632 429.593C976.525 429.45 976.471 429.289 976.471 429.11V428.52C976.471 426.838 975.773 425.425 974.378 424.28C973.019 423.1 971.122 422.509 968.69 422.509C966.722 422.509 965.184 422.921 964.074 423.744C963.001 424.567 962.464 425.729 962.464 427.232C962.464 428.305 962.751 429.182 963.323 429.861C963.896 430.541 964.754 431.167 965.899 431.74C967.044 432.276 968.815 432.974 971.212 433.833C973.752 434.799 975.773 435.675 977.276 436.462C978.814 437.249 980.12 438.358 981.194 439.79C982.303 441.185 982.857 442.938 982.857 445.049C982.857 448.269 981.659 450.827 979.262 452.723C976.9 454.619 973.663 455.567 969.548 455.567Z" fill="#00588F"/>
<path d="M943.362 418.216C943.362 418.037 943.416 417.894 943.523 417.786C943.666 417.643 943.827 417.572 944.006 417.572H948.943C949.122 417.572 949.265 417.643 949.372 417.786C949.516 417.894 949.587 418.037 949.587 418.216V454.493C949.587 454.672 949.516 454.833 949.372 454.976C949.265 455.084 949.122 455.137 948.943 455.137H944.167C943.809 455.137 943.559 454.994 943.416 454.708L927.96 429.378C927.888 429.271 927.817 429.235 927.745 429.271C927.674 429.271 927.638 429.342 927.638 429.485L927.745 454.493C927.745 454.672 927.674 454.833 927.531 454.976C927.423 455.084 927.28 455.137 927.101 455.137H922.164C921.985 455.137 921.824 455.084 921.681 454.976C921.574 454.833 921.52 454.672 921.52 454.493V418.216C921.52 418.037 921.574 417.894 921.681 417.786C921.824 417.643 921.985 417.572 922.164 417.572H926.94C927.298 417.572 927.549 417.715 927.692 418.001L943.094 443.331C943.165 443.438 943.237 443.492 943.308 443.492C943.38 443.456 943.416 443.367 943.416 443.224L943.362 418.216Z" fill="#00588F"/>
<path d="M900.908 455.674C898.224 455.674 895.845 455.138 893.77 454.064C891.695 452.955 890.085 451.399 888.94 449.396C887.831 447.392 887.277 445.084 887.277 442.473V430.237C887.277 427.661 887.849 425.389 888.994 423.422C890.139 421.418 891.731 419.88 893.77 418.806C895.845 417.697 898.224 417.143 900.908 417.143C903.627 417.143 906.006 417.697 908.045 418.806C910.12 419.88 911.73 421.418 912.875 423.422C914.02 425.389 914.592 427.661 914.592 430.237V442.473C914.592 445.084 914.02 447.392 912.875 449.396C911.73 451.399 910.12 452.955 908.045 454.064C906.006 455.138 903.627 455.674 900.908 455.674ZM900.908 450.308C903.162 450.308 904.968 449.61 906.328 448.215C907.687 446.82 908.367 444.977 908.367 442.687V430.183C908.367 427.858 907.687 425.998 906.328 424.602C904.968 423.207 903.162 422.509 900.908 422.509C898.689 422.509 896.901 423.207 895.541 424.602C894.182 425.998 893.502 427.858 893.502 430.183V442.687C893.502 444.977 894.182 446.82 895.541 448.215C896.901 449.61 898.689 450.308 900.908 450.308Z" fill="#00588F"/>
<path d="M874.789 455.137C874.61 455.137 874.449 455.084 874.306 454.976C874.198 454.833 874.145 454.672 874.145 454.493V418.216C874.145 418.037 874.198 417.894 874.306 417.786C874.449 417.643 874.61 417.572 874.789 417.572H879.726C879.905 417.572 880.048 417.643 880.155 417.786C880.298 417.894 880.37 418.037 880.37 418.216V454.493C880.37 454.672 880.298 454.833 880.155 454.976C880.048 455.084 879.905 455.137 879.726 455.137H874.789Z" fill="#00588F"/>
<path d="M867.753 417.572C867.931 417.572 868.075 417.643 868.182 417.786C868.325 417.894 868.397 418.037 868.397 418.216V422.348C868.397 422.527 868.325 422.688 868.182 422.831C868.075 422.938 867.931 422.992 867.753 422.992H857.878C857.699 422.992 857.61 423.081 857.61 423.26V454.493C857.61 454.672 857.538 454.833 857.395 454.976C857.288 455.084 857.145 455.137 856.966 455.137H852.029C851.85 455.137 851.689 455.084 851.546 454.976C851.438 454.833 851.385 454.672 851.385 454.493V423.26C851.385 423.081 851.295 422.992 851.116 422.992H841.618C841.439 422.992 841.278 422.938 841.135 422.831C841.027 422.688 840.974 422.527 840.974 422.348V418.216C840.974 418.037 841.027 417.894 841.135 417.786C841.278 417.643 841.439 417.572 841.618 417.572H867.753Z" fill="#00588F"/>
<path d="M822.098 455.567C819.451 455.567 817.107 455.048 815.068 454.01C813.029 452.973 811.437 451.506 810.292 449.61C809.183 447.678 808.628 445.46 808.628 442.955V418.216C808.628 418.037 808.682 417.894 808.789 417.786C808.932 417.643 809.094 417.572 809.272 417.572H814.21C814.388 417.572 814.532 417.643 814.639 417.786C814.782 417.894 814.854 418.037 814.854 418.216V443.063C814.854 445.174 815.515 446.891 816.839 448.215C818.163 449.538 819.916 450.2 822.098 450.2C824.281 450.2 826.034 449.538 827.358 448.215C828.681 446.891 829.343 445.174 829.343 443.063V418.216C829.343 418.037 829.397 417.894 829.504 417.786C829.647 417.643 829.808 417.572 829.987 417.572H834.924C835.103 417.572 835.246 417.643 835.354 417.786C835.497 417.894 835.568 418.037 835.568 418.216V442.955C835.568 445.46 835.014 447.678 833.905 449.61C832.796 451.506 831.221 452.973 829.182 454.01C827.143 455.048 824.782 455.567 822.098 455.567Z" fill="#00588F"/>
<path d="M778.936 455.137C778.758 455.137 778.596 455.084 778.453 454.976C778.346 454.833 778.292 454.672 778.292 454.493V418.216C778.292 418.037 778.346 417.894 778.453 417.786C778.596 417.643 778.758 417.572 778.936 417.572H783.874C784.052 417.572 784.196 417.643 784.303 417.786C784.446 417.894 784.518 418.037 784.518 418.216V449.502C784.518 449.681 784.607 449.771 784.786 449.771H802.764C802.943 449.771 803.086 449.842 803.193 449.985C803.336 450.093 803.408 450.236 803.408 450.415V454.493C803.408 454.672 803.336 454.833 803.193 454.976C803.086 455.084 802.943 455.137 802.764 455.137H778.936Z" fill="#00588F"/>
<path d="M757.68 455.674C754.996 455.674 752.617 455.138 750.542 454.064C748.467 452.955 746.857 451.399 745.712 449.396C744.603 447.392 744.049 445.084 744.049 442.473V430.237C744.049 427.661 744.621 425.389 745.766 423.422C746.911 421.418 748.503 419.88 750.542 418.806C752.617 417.697 754.996 417.143 757.68 417.143C760.399 417.143 762.778 417.697 764.817 418.806C766.892 419.88 768.502 421.418 769.647 423.422C770.792 425.389 771.364 427.661 771.364 430.237V442.473C771.364 445.084 770.792 447.392 769.647 449.396C768.502 451.399 766.892 452.955 764.817 454.064C762.778 455.138 760.399 455.674 757.68 455.674ZM757.68 450.308C759.934 450.308 761.74 449.61 763.1 448.215C764.459 446.82 765.139 444.977 765.139 442.687V430.183C765.139 427.858 764.459 425.998 763.1 424.602C761.74 423.207 759.934 422.509 757.68 422.509C755.461 422.509 753.673 423.207 752.313 424.602C750.954 425.998 750.274 427.858 750.274 430.183V442.687C750.274 444.977 750.954 446.82 752.313 448.215C753.673 449.61 755.461 450.308 757.68 450.308Z" fill="#00588F"/>
<path d="M725.382 455.567C722.592 455.567 720.159 455.12 718.084 454.225C716.009 453.331 714.399 452.079 713.254 450.469C712.145 448.859 711.59 446.963 711.59 444.78V443.439C711.59 443.26 711.644 443.117 711.751 443.009C711.895 442.866 712.056 442.795 712.234 442.795H717.011C717.19 442.795 717.333 442.866 717.44 443.009C717.583 443.117 717.655 443.26 717.655 443.439V444.458C717.655 446.104 718.388 447.481 719.855 448.591C721.322 449.664 723.325 450.201 725.865 450.201C728.048 450.201 729.693 449.735 730.803 448.805C731.912 447.875 732.466 446.677 732.466 445.21C732.466 444.208 732.162 443.367 731.554 442.687C730.946 441.972 730.069 441.328 728.924 440.755C727.815 440.183 726.134 439.468 723.88 438.609C721.34 437.679 719.282 436.802 717.708 435.979C716.134 435.156 714.81 434.047 713.737 432.652C712.7 431.221 712.181 429.45 712.181 427.339C712.181 424.191 713.326 421.704 715.615 419.88C717.905 418.055 720.964 417.143 724.792 417.143C727.475 417.143 729.837 417.608 731.876 418.538C733.951 419.468 735.561 420.774 736.706 422.456C737.851 424.101 738.423 426.015 738.423 428.198V429.11C738.423 429.289 738.351 429.45 738.208 429.593C738.101 429.7 737.958 429.754 737.779 429.754H732.949C732.77 429.754 732.609 429.7 732.466 429.593C732.359 429.45 732.305 429.289 732.305 429.11V428.52C732.305 426.838 731.608 425.425 730.212 424.28C728.853 423.1 726.957 422.509 724.524 422.509C722.556 422.509 721.018 422.921 719.909 423.744C718.835 424.567 718.299 425.729 718.299 427.232C718.299 428.305 718.585 429.182 719.157 429.861C719.73 430.541 720.588 431.167 721.733 431.74C722.878 432.276 724.649 432.974 727.046 433.833C729.586 434.799 731.607 435.675 733.11 436.462C734.648 437.249 735.954 438.358 737.028 439.79C738.137 441.185 738.691 442.938 738.691 445.049C738.691 448.269 737.493 450.827 735.096 452.723C732.734 454.619 729.497 455.567 725.382 455.567Z" fill="#00588F"/>
<path d="M689.109 455.137C688.93 455.137 688.769 455.084 688.626 454.976C688.519 454.833 688.465 454.672 688.465 454.493V418.216C688.465 418.037 688.519 417.894 688.626 417.786C688.769 417.643 688.93 417.572 689.109 417.572H694.046C694.225 417.572 694.368 417.643 694.476 417.786C694.619 417.894 694.69 418.037 694.69 418.216V454.493C694.69 454.672 694.619 454.833 694.476 454.976C694.368 455.084 694.225 455.137 694.046 455.137H689.109Z" fill="#00588F"/>
<path d="M676.958 455.137C676.6 455.137 676.367 454.958 676.26 454.601L674.489 448.858C674.417 448.715 674.328 448.644 674.221 448.644H660.053C659.946 448.644 659.856 448.715 659.785 448.858L658.014 454.601C657.907 454.958 657.674 455.137 657.316 455.137H651.95C651.735 455.137 651.574 455.084 651.467 454.976C651.359 454.833 651.341 454.636 651.413 454.386L663.058 418.108C663.166 417.751 663.398 417.572 663.756 417.572H670.464C670.822 417.572 671.054 417.751 671.162 418.108L682.861 454.386C682.897 454.458 682.914 454.547 682.914 454.654C682.914 454.976 682.718 455.137 682.324 455.137H676.958ZM661.448 443.438C661.413 443.653 661.484 443.76 661.663 443.76H672.557C672.772 443.76 672.843 443.653 672.772 443.438L667.244 425.461C667.208 425.317 667.155 425.246 667.083 425.246C667.012 425.246 666.958 425.317 666.922 425.461L661.448 443.438Z" fill="#00588F"/>
<path d="M610.395 455.137C610.216 455.137 610.055 455.084 609.911 454.976C609.804 454.833 609.751 454.672 609.751 454.493V418.216C609.751 418.037 609.804 417.894 609.911 417.786C610.055 417.643 610.216 417.572 610.395 417.572H623.489C626.029 417.572 628.265 418.019 630.197 418.913C632.129 419.808 633.614 421.096 634.651 422.777C635.724 424.423 636.261 426.355 636.261 428.573V444.136C636.261 446.354 635.724 448.304 634.651 449.985C633.614 451.631 632.129 452.901 630.197 453.796C628.265 454.69 626.029 455.137 623.489 455.137H610.395ZM615.976 449.502C615.976 449.681 616.065 449.771 616.244 449.771H623.757C625.653 449.771 627.156 449.18 628.265 448C629.41 446.783 630 445.173 630.036 443.17V429.593C630.036 427.553 629.464 425.944 628.319 424.763C627.174 423.546 625.635 422.938 623.703 422.938H616.244C616.065 422.938 615.976 423.028 615.976 423.207V449.502Z" fill="#00588F"/>
<path d="M603.428 422.294C603.428 422.473 603.356 422.634 603.213 422.777C603.106 422.885 602.962 422.938 602.784 422.938H584.484C584.305 422.938 584.216 423.028 584.216 423.207V433.242C584.216 433.421 584.305 433.51 584.484 433.51H596.773C596.952 433.51 597.095 433.582 597.202 433.725C597.345 433.832 597.417 433.975 597.417 434.154V438.233C597.417 438.412 597.345 438.573 597.202 438.716C597.095 438.823 596.952 438.877 596.773 438.877H584.484C584.305 438.877 584.216 438.966 584.216 439.145V449.502C584.216 449.681 584.305 449.771 584.484 449.771H602.784C602.962 449.771 603.106 449.842 603.213 449.985C603.356 450.093 603.428 450.236 603.428 450.415V454.493C603.428 454.672 603.356 454.833 603.213 454.976C603.106 455.084 602.962 455.137 602.784 455.137H578.634C578.455 455.137 578.294 455.084 578.151 454.976C578.044 454.833 577.99 454.672 577.99 454.493V418.216C577.99 418.037 578.044 417.894 578.151 417.786C578.294 417.643 578.455 417.572 578.634 417.572H602.784C602.962 417.572 603.106 417.643 603.213 417.786C603.356 417.894 603.428 418.037 603.428 418.216V422.294Z" fill="#00588F"/>
<path d="M571.6 417.572C571.779 417.572 571.922 417.643 572.03 417.786C572.173 417.894 572.244 418.037 572.244 418.216V422.348C572.244 422.527 572.173 422.688 572.03 422.831C571.922 422.938 571.779 422.992 571.6 422.992H561.726C561.547 422.992 561.458 423.081 561.458 423.26V454.493C561.458 454.672 561.386 454.833 561.243 454.976C561.136 455.084 560.993 455.137 560.814 455.137H555.876C555.698 455.137 555.537 455.084 555.393 454.976C555.286 454.833 555.233 454.672 555.233 454.493V423.26C555.233 423.081 555.143 422.992 554.964 422.992H545.466C545.287 422.992 545.126 422.938 544.982 422.831C544.875 422.688 544.821 422.527 544.821 422.348V418.216C544.821 418.037 544.875 417.894 544.982 417.786C545.126 417.643 545.287 417.572 545.466 417.572H571.6Z" fill="#00588F"/>
<path d="M539.599 455.137C539.241 455.137 539.008 454.958 538.901 454.601L537.13 448.858C537.059 448.715 536.969 448.644 536.862 448.644H522.694C522.587 448.644 522.497 448.715 522.426 448.858L520.655 454.601C520.548 454.958 520.315 455.137 519.957 455.137H514.591C514.376 455.137 514.215 455.084 514.108 454.976C514 454.833 513.983 454.636 514.054 454.386L525.699 418.108C525.807 417.751 526.039 417.572 526.397 417.572H533.105C533.463 417.572 533.696 417.751 533.803 418.108L545.502 454.386C545.538 454.458 545.556 454.547 545.556 454.654C545.556 454.976 545.359 455.137 544.965 455.137H539.599ZM524.089 443.438C524.054 443.653 524.125 443.76 524.304 443.76H535.198C535.413 443.76 535.484 443.653 535.413 443.438L529.885 425.461C529.85 425.317 529.796 425.246 529.724 425.246C529.653 425.246 529.599 425.317 529.563 425.461L524.089 443.438Z" fill="#00588F"/>
<path d="M503.228 455.137C502.871 455.137 502.62 454.976 502.477 454.654L495.393 439.199C495.322 439.056 495.214 438.984 495.071 438.984H488.632C488.453 438.984 488.363 439.074 488.363 439.252V454.493C488.363 454.672 488.292 454.833 488.149 454.976C488.041 455.084 487.898 455.137 487.719 455.137H482.782C482.603 455.137 482.442 455.084 482.299 454.976C482.192 454.833 482.138 454.672 482.138 454.493V418.216C482.138 418.037 482.192 417.894 482.299 417.786C482.442 417.643 482.603 417.572 482.782 417.572H497.54C499.722 417.572 501.654 418.037 503.336 418.967C505.017 419.861 506.323 421.149 507.253 422.831C508.184 424.477 508.649 426.373 508.649 428.519C508.649 430.988 508.005 433.099 506.717 434.852C505.464 436.569 503.711 437.768 501.457 438.447C501.386 438.447 501.332 438.483 501.297 438.555C501.261 438.626 501.261 438.698 501.297 438.769L508.863 454.386C508.935 454.529 508.971 454.636 508.971 454.708C508.971 454.994 508.774 455.137 508.38 455.137H503.228ZM488.632 422.938C488.453 422.938 488.363 423.028 488.363 423.207V433.886C488.363 434.065 488.453 434.154 488.632 434.154H496.681C498.399 434.154 499.776 433.653 500.814 432.652C501.887 431.614 502.423 430.255 502.423 428.573C502.423 426.892 501.887 425.532 500.814 424.495C499.776 423.457 498.399 422.938 496.681 422.938H488.632Z" fill="#00588F"/>
<path d="M461.783 455.567C459.1 455.567 456.738 455.048 454.699 454.011C452.66 452.937 451.086 451.435 449.976 449.503C448.867 447.571 448.313 445.353 448.313 442.848V429.861C448.313 427.321 448.867 425.103 449.976 423.207C451.086 421.275 452.66 419.79 454.699 418.753C456.738 417.679 459.1 417.143 461.783 417.143C464.43 417.143 466.756 417.662 468.759 418.699C470.799 419.737 472.373 421.15 473.482 422.939C474.591 424.728 475.145 426.749 475.145 429.003V429.432C475.145 429.611 475.074 429.772 474.931 429.915C474.823 430.022 474.68 430.076 474.501 430.076H469.618C469.439 430.076 469.278 430.022 469.135 429.915C469.028 429.772 468.974 429.611 468.974 429.432V429.164C468.974 427.232 468.312 425.64 466.988 424.388C465.7 423.135 463.965 422.509 461.783 422.509C459.6 422.509 457.847 423.171 456.524 424.495C455.2 425.783 454.538 427.5 454.538 429.647V443.063C454.538 445.21 455.236 446.945 456.631 448.269C458.026 449.557 459.833 450.201 462.051 450.201C464.198 450.201 465.879 449.646 467.096 448.537C468.348 447.392 468.974 445.836 468.974 443.868V440.541C468.974 440.362 468.884 440.272 468.706 440.272H462.105C461.926 440.272 461.765 440.219 461.622 440.111C461.514 439.968 461.461 439.807 461.461 439.629V435.657C461.461 435.478 461.514 435.335 461.622 435.228C461.765 435.085 461.926 435.013 462.105 435.013H474.501C474.68 435.013 474.823 435.085 474.931 435.228C475.074 435.335 475.145 435.478 475.145 435.657V442.526C475.145 446.641 473.929 449.843 471.496 452.132C469.099 454.422 465.861 455.567 461.783 455.567Z" fill="#00588F"/>
<path d="M442.905 422.294C442.905 422.473 442.833 422.634 442.69 422.777C442.583 422.885 442.439 422.938 442.261 422.938H423.961C423.782 422.938 423.692 423.028 423.692 423.207V433.242C423.692 433.421 423.782 433.51 423.961 433.51H436.25C436.429 433.51 436.572 433.582 436.679 433.725C436.822 433.832 436.894 433.975 436.894 434.154V438.233C436.894 438.412 436.822 438.573 436.679 438.716C436.572 438.823 436.429 438.877 436.25 438.877H423.961C423.782 438.877 423.692 438.966 423.692 439.145V449.502C423.692 449.681 423.782 449.771 423.961 449.771H442.261C442.439 449.771 442.583 449.842 442.69 449.985C442.833 450.093 442.905 450.236 442.905 450.415V454.493C442.905 454.672 442.833 454.833 442.69 454.976C442.583 455.084 442.439 455.137 442.261 455.137H418.111C417.932 455.137 417.771 455.084 417.628 454.976C417.521 454.833 417.467 454.672 417.467 454.493V418.216C417.467 418.037 417.521 417.894 417.628 417.786C417.771 417.643 417.932 417.572 418.111 417.572H442.261C442.439 417.572 442.583 417.643 442.69 417.786C442.833 417.894 442.905 418.037 442.905 418.216V422.294Z" fill="#00588F"/>
<path d="M411.076 417.572C411.255 417.572 411.398 417.643 411.505 417.786C411.648 417.894 411.72 418.037 411.72 418.216V422.348C411.72 422.527 411.648 422.688 411.505 422.831C411.398 422.938 411.255 422.992 411.076 422.992H401.201C401.023 422.992 400.933 423.081 400.933 423.26V454.493C400.933 454.672 400.862 454.833 400.719 454.976C400.611 455.084 400.468 455.137 400.289 455.137H395.352C395.173 455.137 395.012 455.084 394.869 454.976C394.762 454.833 394.708 454.672 394.708 454.493V423.26C394.708 423.081 394.619 422.992 394.44 422.992H384.941C384.762 422.992 384.601 422.938 384.458 422.831C384.351 422.688 384.297 422.527 384.297 422.348V418.216C384.297 418.037 384.351 417.894 384.458 417.786C384.601 417.643 384.762 417.572 384.941 417.572H411.076Z" fill="#00588F"/>
<path d="M372.333 418.216C372.333 418.037 372.387 417.894 372.494 417.786C372.637 417.643 372.798 417.572 372.977 417.572H377.914C378.093 417.572 378.236 417.643 378.344 417.786C378.487 417.894 378.558 418.037 378.558 418.216V454.493C378.558 454.672 378.487 454.833 378.344 454.976C378.236 455.084 378.093 455.137 377.914 455.137H373.138C372.78 455.137 372.53 454.994 372.387 454.708L356.931 429.378C356.86 429.271 356.788 429.235 356.717 429.271C356.645 429.271 356.609 429.342 356.609 429.485L356.717 454.493C356.717 454.672 356.645 454.833 356.502 454.976C356.395 455.084 356.252 455.137 356.073 455.137H351.135C350.957 455.137 350.796 455.084 350.653 454.976C350.545 454.833 350.492 454.672 350.492 454.493V418.216C350.492 418.037 350.545 417.894 350.653 417.786C350.796 417.643 350.957 417.572 351.135 417.572H355.912C356.269 417.572 356.52 417.715 356.663 418.001L372.065 443.331C372.136 443.438 372.208 443.492 372.28 443.492C372.351 443.456 372.387 443.367 372.387 443.224L372.333 418.216Z" fill="#00588F"/>
<path d="M337.091 455.137C336.912 455.137 336.751 455.084 336.608 454.976C336.501 454.833 336.447 454.672 336.447 454.493V418.216C336.447 418.037 336.501 417.894 336.608 417.786C336.751 417.643 336.912 417.572 337.091 417.572H342.028C342.207 417.572 342.35 417.643 342.458 417.786C342.601 417.894 342.672 418.037 342.672 418.216V454.493C342.672 454.672 342.601 454.833 342.458 454.976C342.35 455.084 342.207 455.137 342.028 455.137H337.091Z" fill="#00588F"/>
<path d="M319.381 422.294C319.381 422.473 319.31 422.634 319.166 422.777C319.059 422.885 318.916 422.938 318.737 422.938H300.437C300.259 422.938 300.169 423.028 300.169 423.207V433.242C300.169 433.421 300.259 433.51 300.437 433.51H312.727C312.906 433.51 313.049 433.582 313.156 433.725C313.299 433.832 313.371 433.975 313.371 434.154V438.233C313.371 438.412 313.299 438.573 313.156 438.716C313.049 438.823 312.906 438.877 312.727 438.877H300.437C300.259 438.877 300.169 438.966 300.169 439.145V449.502C300.169 449.681 300.259 449.771 300.437 449.771H318.737C318.916 449.771 319.059 449.842 319.166 449.985C319.31 450.093 319.381 450.236 319.381 450.415V454.493C319.381 454.672 319.31 454.833 319.166 454.976C319.059 455.084 318.916 455.137 318.737 455.137H294.588C294.409 455.137 294.248 455.084 294.105 454.976C293.998 454.833 293.944 454.672 293.944 454.493V418.216C293.944 418.037 293.998 417.894 294.105 417.786C294.248 417.643 294.409 417.572 294.588 417.572H318.737C318.916 417.572 319.059 417.643 319.166 417.786C319.31 417.894 319.381 418.037 319.381 418.216V422.294Z" fill="#00588F"/>
<path d="M263.93 455.137C263.751 455.137 263.59 455.084 263.447 454.976C263.34 454.833 263.286 454.672 263.286 454.493V418.216C263.286 418.037 263.34 417.894 263.447 417.786C263.59 417.643 263.751 417.572 263.93 417.572H268.867C269.046 417.572 269.189 417.643 269.297 417.786C269.44 417.894 269.511 418.037 269.511 418.216V449.502C269.511 449.681 269.601 449.771 269.78 449.771H287.757C287.936 449.771 288.079 449.842 288.187 449.985C288.33 450.093 288.401 450.236 288.401 450.415V454.493C288.401 454.672 288.33 454.833 288.187 454.976C288.079 455.084 287.936 455.137 287.757 455.137H263.93Z" fill="#00588F"/>
<path d="M250.886 435.55C250.671 435.657 250.671 435.764 250.886 435.872C254.535 437.589 256.36 440.54 256.36 444.726C256.36 448.125 255.215 450.719 252.925 452.508C250.671 454.261 247.719 455.137 244.07 455.137H230.547C230.368 455.137 230.207 455.084 230.064 454.976C229.956 454.833 229.903 454.672 229.903 454.493V418.216C229.903 418.037 229.956 417.894 230.064 417.786C230.207 417.643 230.368 417.572 230.547 417.572H243.641C247.541 417.572 250.546 418.413 252.657 420.094C254.767 421.776 255.823 424.316 255.823 427.714C255.823 431.471 254.177 434.083 250.886 435.55ZM236.396 422.938C236.217 422.938 236.128 423.028 236.128 423.207V433.135C236.128 433.314 236.217 433.403 236.396 433.403H243.641C245.537 433.403 247.022 432.956 248.095 432.061C249.204 431.131 249.759 429.861 249.759 428.251C249.759 426.605 249.204 425.317 248.095 424.387C247.022 423.421 245.537 422.938 243.641 422.938H236.396ZM244.07 449.717C245.931 449.717 247.397 449.216 248.471 448.215C249.58 447.213 250.134 445.853 250.134 444.136C250.134 442.383 249.58 441.023 248.471 440.057C247.362 439.056 245.859 438.555 243.963 438.555H236.396C236.217 438.555 236.128 438.644 236.128 438.823V449.449C236.128 449.628 236.217 449.717 236.396 449.717H244.07Z" fill="#00588F"/>
<path d="M218.394 455.137C218.037 455.137 217.804 454.958 217.697 454.601L215.926 448.858C215.854 448.715 215.765 448.644 215.658 448.644H201.49C201.383 448.644 201.293 448.715 201.222 448.858L199.451 454.601C199.343 454.958 199.111 455.137 198.753 455.137H193.387C193.172 455.137 193.011 455.084 192.904 454.976C192.796 454.833 192.778 454.636 192.85 454.386L204.495 418.108C204.603 417.751 204.835 417.572 205.193 417.572H211.901C212.259 417.572 212.491 417.751 212.599 418.108L224.298 454.386C224.333 454.458 224.351 454.547 224.351 454.654C224.351 454.976 224.155 455.137 223.761 455.137H218.394ZM202.885 443.438C202.849 443.653 202.921 443.76 203.1 443.76H213.994C214.209 443.76 214.28 443.653 214.209 443.438L208.681 425.461C208.645 425.317 208.592 425.246 208.52 425.246C208.449 425.246 208.395 425.317 208.359 425.461L202.885 443.438Z" fill="#00588F"/>
<path d="M164.356 455.137C164.177 455.137 164.016 455.084 163.873 454.976C163.765 454.833 163.712 454.672 163.712 454.493V418.216C163.712 418.037 163.765 417.894 163.873 417.786C164.016 417.643 164.177 417.572 164.356 417.572H177.45C179.99 417.572 182.226 418.019 184.158 418.913C186.09 419.808 187.575 421.096 188.612 422.777C189.686 424.423 190.222 426.355 190.222 428.573V444.136C190.222 446.354 189.686 448.304 188.612 449.985C187.575 451.631 186.09 452.901 184.158 453.796C182.226 454.69 179.99 455.137 177.45 455.137H164.356ZM169.937 449.502C169.937 449.681 170.026 449.771 170.205 449.771H177.718C179.614 449.771 181.117 449.18 182.226 448C183.371 446.783 183.961 445.173 183.997 443.17V429.593C183.997 427.553 183.425 425.944 182.28 424.763C181.135 423.546 179.597 422.938 177.665 422.938H170.205C170.026 422.938 169.937 423.028 169.937 423.207V449.502Z" fill="#00588F"/>
<path d="M151.89 455.137C151.532 455.137 151.282 454.976 151.139 454.654L144.055 439.199C143.983 439.056 143.876 438.984 143.733 438.984H137.293C137.114 438.984 137.025 439.074 137.025 439.252V454.493C137.025 454.672 136.953 454.833 136.81 454.976C136.703 455.084 136.56 455.137 136.381 455.137H131.444C131.265 455.137 131.104 455.084 130.961 454.976C130.853 454.833 130.8 454.672 130.8 454.493V418.216C130.8 418.037 130.853 417.894 130.961 417.786C131.104 417.643 131.265 417.572 131.444 417.572H146.202C148.384 417.572 150.316 418.037 151.997 418.967C153.679 419.861 154.985 421.149 155.915 422.831C156.845 424.477 157.31 426.373 157.31 428.519C157.31 430.988 156.666 433.099 155.378 434.852C154.126 436.569 152.373 437.768 150.119 438.447C150.048 438.447 149.994 438.483 149.958 438.555C149.922 438.626 149.922 438.698 149.958 438.769L157.525 454.386C157.596 454.529 157.632 454.636 157.632 454.708C157.632 454.994 157.435 455.137 157.042 455.137H151.89ZM137.293 422.938C137.114 422.938 137.025 423.028 137.025 423.207V433.886C137.025 434.065 137.114 434.154 137.293 434.154H145.343C147.06 434.154 148.438 433.653 149.475 432.652C150.548 431.614 151.085 430.255 151.085 428.573C151.085 426.892 150.548 425.532 149.475 424.495C148.438 423.457 147.06 422.938 145.343 422.938H137.293Z" fill="#00588F"/>
<path d="M110.188 455.674C107.504 455.674 105.125 455.138 103.05 454.064C100.975 452.955 99.3651 451.399 98.2202 449.396C97.1112 447.392 96.5566 445.084 96.5566 442.473V430.237C96.5566 427.661 97.1291 425.389 98.2739 423.422C99.4188 421.418 101.011 419.88 103.05 418.806C105.125 417.697 107.504 417.143 110.188 417.143C112.907 417.143 115.286 417.697 117.325 418.806C119.4 419.88 121.01 421.418 122.155 423.422C123.3 425.389 123.872 427.661 123.872 430.237V442.473C123.872 445.084 123.3 447.392 122.155 449.396C121.01 451.399 119.4 452.955 117.325 454.064C115.286 455.138 112.907 455.674 110.188 455.674ZM110.188 450.308C112.441 450.308 114.248 449.61 115.608 448.215C116.967 446.82 117.647 444.977 117.647 442.687V430.183C117.647 427.858 116.967 425.998 115.608 424.602C114.248 423.207 112.441 422.509 110.188 422.509C107.969 422.509 106.181 423.207 104.821 424.602C103.462 425.998 102.782 427.858 102.782 430.183V442.687C102.782 444.977 103.462 446.82 104.821 448.215C106.181 449.61 107.969 450.308 110.188 450.308Z" fill="#00588F"/>
<path d="M92.7179 422.294C92.7179 422.473 92.6463 422.634 92.5032 422.777C92.3959 422.885 92.2528 422.938 92.0739 422.938H73.8278C73.6489 422.938 73.5594 423.028 73.5594 423.207V433.242C73.5594 433.421 73.6489 433.51 73.8278 433.51H86.1171C86.296 433.51 86.4391 433.582 86.5464 433.725C86.6895 433.832 86.7611 433.975 86.7611 434.154V438.233C86.7611 438.412 86.6895 438.573 86.5464 438.716C86.4391 438.823 86.296 438.877 86.1171 438.877H73.8278C73.6489 438.877 73.5594 438.966 73.5594 439.145V454.493C73.5594 454.672 73.4879 454.833 73.3448 454.976C73.2374 455.084 73.0944 455.137 72.9155 455.137H67.9783C67.7994 455.137 67.6384 455.084 67.4953 454.976C67.388 454.833 67.3343 454.672 67.3343 454.493V418.216C67.3343 418.037 67.388 417.894 67.4953 417.786C67.6384 417.643 67.7994 417.572 67.9783 417.572H92.0739C92.2528 417.572 92.3959 417.643 92.5032 417.786C92.6463 417.894 92.7179 418.037 92.7179 418.216V422.294Z" fill="#00588F"/>
<path d="M62.4793 422.294C62.4793 422.473 62.4077 422.634 62.2646 422.777C62.1573 422.885 62.0142 422.938 61.8353 422.938H43.5892C43.4103 422.938 43.3208 423.028 43.3208 423.207V433.242C43.3208 433.421 43.4103 433.51 43.5892 433.51H55.8785C56.0573 433.51 56.2005 433.582 56.3078 433.725C56.4509 433.832 56.5224 433.975 56.5224 434.154V438.233C56.5224 438.412 56.4509 438.573 56.3078 438.716C56.2005 438.823 56.0573 438.877 55.8785 438.877H43.5892C43.4103 438.877 43.3208 438.966 43.3208 439.145V454.493C43.3208 454.672 43.2493 454.833 43.1062 454.976C42.9988 455.084 42.8557 455.137 42.6768 455.137H37.7397C37.5608 455.137 37.3998 455.084 37.2567 454.976C37.1493 454.833 37.0957 454.672 37.0957 454.493V418.216C37.0957 418.037 37.1493 417.894 37.2567 417.786C37.3998 417.643 37.5608 417.572 37.7397 417.572H61.8353C62.0142 417.572 62.1573 417.643 62.2646 417.786C62.4077 417.894 62.4793 418.037 62.4793 418.216V422.294Z" fill="#00588F"/>
<path d="M25.5875 455.137C25.2297 455.137 24.9972 454.958 24.8899 454.601L23.1189 448.858C23.0474 448.715 22.9579 448.644 22.8506 448.644H8.68301C8.57568 448.644 8.48624 448.715 8.41468 448.858L6.64374 454.601C6.53641 454.958 6.30386 455.137 5.94609 455.137H0.579583C0.364922 455.137 0.203927 455.084 0.0965971 454.976C-0.010733 454.833 -0.0286214 454.636 0.0429321 454.386L11.6883 418.108C11.7956 417.751 12.0281 417.572 12.3859 417.572H19.094C19.4518 417.572 19.6844 417.751 19.7917 418.108L31.4907 454.386C31.5264 454.458 31.5443 454.547 31.5443 454.654C31.5443 454.976 31.3476 455.137 30.954 455.137H25.5875ZM10.0783 443.438C10.0425 443.653 10.1141 443.76 10.293 443.76H21.187C21.4016 443.76 21.4732 443.653 21.4016 443.438L15.8741 425.461C15.8384 425.317 15.7847 425.246 15.7131 425.246C15.6416 425.246 15.5879 425.317 15.5521 425.461L10.0783 443.438Z" fill="#00588F"/>
</svg>
